<?xml version="1.0" encoding="utf-8"?>
<!-- Generator: Adobe Illustrator 19.1.0, SVG Export Plug-In . SVG Version: 6.00 Build 0)  -->
<svg version="1.1" id="Layer_1" xmlns="http://www.w3.org/2000/svg" xmlns:xlink="http://www.w3.org/1999/xlink" x="0px" y="0px"
	 viewBox="0 0 111.8 111.8" style="enable-background:new 0 0 111.8 111.8;" xml:space="preserve">
<style type="text/css">
	.st0{fill:#FFFFFF;}
	.st1{fill:#603913;}
	.st2{fill:#58595B;}
	.st3{fill:#F2C082;}
</style>
<g>
	<path class="st0" d="M43.9,59.8l12.4-15.3c9.2-11.3,20.3-22.4,33.4-33.1C80.3,4.2,68.6,0,55.9,0C42.7,0,30.7,4.6,21.1,12.2
		c4.9-1.5,9.9-2.3,15-2.3c5.6,0,9.6,1.3,12.2,4c2.6,2.7,3.9,5.9,3.9,9.7c0,6.4-2.8,12.7-8.5,19.1C38,49,30.6,54.1,21.3,58
		C14,61,7.1,62.9,0.5,63.5C2,74.1,6.4,83.8,12.9,91.7C22.3,84.2,32.7,73.6,43.9,59.8z"/>
	<path class="st0" d="M42.6,40.9c5.8-5.9,8.6-11.8,8.6-17.8c0-3.9-1.4-7-4.1-9.2c-2.7-2.2-6.4-3.3-10.9-3.3c-5.8,0-11.5,1-17.1,3.1
		C7.4,24,0,39.1,0,55.9c0,1.8,0.1,3.6,0.3,5.3c5.8-0.9,12.1-2.7,18.9-5.4C29.1,51.8,36.9,46.8,42.6,40.9z"/>
	<path class="st0" d="M64.3,51.5c-1.8,0-2.7,0.5-2.7,1.5c0,0.6,0.7,1.2,2,1.8c1.4,0.6,2.8,0.8,4.5,0.8c0.8,0,1.8-0.1,3-0.3
		C69.1,52.8,66.8,51.5,64.3,51.5z"/>
	<path class="st0" d="M105.9,43.4c-7.1,6.3-18,10.6-32.8,12.7c1.8,2.8,2.7,5.9,2.7,9.1c0,2.5-0.8,5.3-2.3,8.5
		c-1.5,3.2-5,7.3-10.5,12.4c-5.5,5-8.8,8.5-10.1,10.3c-1.3,1.9-1.9,3.4-1.9,4.6c0,2.9,2,4.3,6,4.3c4,0,9.4-2,16.1-5.9
		c6.7-4,11.9-7.8,15.9-11.4l0.6,0.6c-13.6,11.7-24.6,17.5-33.1,17.5c-2.8,0-5-0.7-6.5-2.2c-1.5-1.4-2.2-3.1-2.2-4.9
		c0-2,0.6-4.2,1.8-6.6c1.2-2.4,2.6-4.6,4.2-6.5c1.6-1.9,4.9-5.2,10-9.9l5.6-5c3.4-3.1,5-5.8,5-8.3c0-2.1-0.7-4.4-2.2-6.7
		c-1.4,0.2-2.5,0.3-3.3,0.3c-2.1,0-4-0.3-5.6-1c-1.6-0.7-2.4-1.5-2.4-2.5c0-0.6,0.3-1.1,1-1.6c0.7-0.5,1.5-0.7,2.4-0.7
		c3.3,0,6.1,1.6,8.4,4.9c10.4-1.3,19.7-6.5,27.7-15.6c2.4-2.7,4.5-5.4,6.2-7.9c-3.6-7.7-9-14.4-15.5-19.6c-2.6,2.4-5,4.9-7.4,7.5
		c-6.5,7.2-15.2,18.2-26,33.2l-9.3,12.8c-3.5,4.8-8.7,10.3-15.7,16.5c-4.9,4.3-10.6,8.3-17.2,12c10.2,10.7,24.6,17.4,40.5,17.4
		c30.9,0,55.9-25,55.9-55.9c0-5.6-0.8-11-2.4-16.1C108.4,41,107.2,42.2,105.9,43.4z"/>
</g>
</svg>
