<?xml version="1.0" encoding="utf-8"?>
<!-- Generator: Adobe Illustrator 19.1.0, SVG Export Plug-In . SVG Version: 6.00 Build 0)  -->
<svg version="1.1" id="Layer_1" xmlns="http://www.w3.org/2000/svg" xmlns:xlink="http://www.w3.org/1999/xlink" x="0px" y="0px"
	 viewBox="0 0 1130.7 363.1" style="enable-background:new 0 0 1130.7 363.1;" xml:space="preserve">
<style type="text/css">
	.st0{fill:#FFFFFF;}
	.st1{fill:#603913;}
	.st2{fill:#58595B;}
	.st3{fill:#F2C082;}
</style>
<g>
	<path class="st0" d="M319.7,233.2l1.4,1.4c-30.6,26.3-55.5,39.5-74.6,39.5c-6.4,0-11.2-1.6-14.6-4.9s-5-6.9-5-10.9
		c0-4.4,1.3-9.3,4-14.7c2.7-5.4,5.8-10.3,9.5-14.6c3.6-4.3,11.1-11.7,22.5-22.3l12.5-11.3c7.5-6.9,11.3-13.1,11.3-18.8
		c0-4.8-1.6-9.8-4.9-15c-3.1,0.4-5.6,0.6-7.4,0.6c-4.8,0-9-0.7-12.6-2.2c-3.6-1.5-5.4-3.4-5.4-5.6c0-1.3,0.7-2.5,2.2-3.6
		c1.5-1.1,3.3-1.7,5.4-1.7c7.4,0,13.7,3.6,18.9,10.9c23.4-3,44.2-14.7,62.4-35c18.2-20.4,27.2-38.7,27.2-54.9
		c0-14.7-5.4-25.9-16.2-33.7c-17.8,12.9-34.1,27.4-48.6,43.5c-14.6,16.1-34.1,41.1-58.6,74.8l-20.9,28.9
		c-7.8,10.8-19.6,23.2-35.3,37.1c-15.7,13.9-35.4,26.4-59.2,37.4c-23.8,11-46.7,16.5-68.8,16.5c-19.7,0-35.4-3.7-47.3-11.2
		C5.9,255.7,0,247.4,0,238.3c0-3.6,1.3-7.1,3.8-10.3c2.5-3.2,5.8-4.8,9.9-4.8c3.9,0,7.2,1.1,9.8,3.4c2.6,2.3,3.9,5,3.9,8.1
		c0,3-1.1,5.6-3.2,7.7s-4.7,3.2-7.5,3.2c-2.3,0-4.7-0.8-6.9-2.4c-2.3-1.6-3.5-3.5-3.5-5.7c-0.1-2.1-0.6-3.2-1.5-3.2
		c-1.8,0-2.7,1.3-2.7,3.9c0,7.8,5.6,15.5,16.9,22.9c11.3,7.5,27.1,11.2,47.6,11.2c26.3,0,51.1-8.4,74.4-25.1
		c23.3-16.7,49.2-42.6,77.7-77.8l27.9-34.5c28-34.6,64.1-67.9,108.2-99.9c-10.4-9.8-25.6-17.7-45.5-23.9S266.5,2,240.8,2
		C187.2,2,141,16.2,102.4,44.6C63.8,73,44.5,101,44.5,128.6c0,12.7,5.9,23.5,17.6,32.4c11.7,8.8,25.3,13.3,40.6,13.3
		c17.8,0,37.9-4.5,60.2-13.6c22.3-9,39.9-20.2,52.8-33.5c13-13.3,19.4-26.6,19.4-40c0-8.9-3.1-15.7-9.2-20.6
		c-6.1-4.9-14.3-7.3-24.6-7.3c-22.3,0-44.1,6.7-65.5,20.1c-21.4,13.4-38.6,31.5-51.7,54.3l-1.4-0.8c12.9-22.7,30.1-40.9,51.7-54.8
		C156,64.2,178.2,57.2,201,57.2c12.5,0,21.6,3,27.4,9c5.8,6,8.7,13.3,8.7,21.9c0,14.3-6.3,28.6-19,43
		c-12.7,14.3-29.5,25.8-50.4,34.6c-20.9,8.7-40.6,13.1-59.1,13.1c-16.7,0-31.8-4.9-45.5-14.6s-20.5-21.2-20.5-34.2
		c0-19.1,9.4-39.2,28.2-60.2c18.8-21,42.9-37.8,72.2-50.6C172.3,6.4,205.1,0,241.4,0c50.1,0,88.4,11.1,114.8,33.4
		c21.9-14.1,36.9-22.5,45.1-25.2l0.4,1.8c-11.1,4-25.5,12.3-43.4,24.8C374.2,49.2,382,65.7,382,84.2c0,18.1-8,34.3-23.9,48.5
		c-16,14.3-40.6,23.8-73.9,28.6c4,6.4,6.1,13.2,6.1,20.5c0,5.6-1.7,12-5.2,19.2c-3.5,7.2-11.3,16.5-23.6,27.8s-19.9,19.1-22.8,23.2
		c-2.9,4.2-4.3,7.6-4.3,10.4c0,6.5,4.5,9.8,13.5,9.8c9.1,0,21.2-4.5,36.1-13.4C299,250,310.9,241.4,319.7,233.2z M279.9,159.6
		c-4.6-5.7-9.7-8.6-15.4-8.6c-4,0-6.1,1.1-6.1,3.3c0,1.4,1.5,2.8,4.6,4c3.1,1.2,6.4,1.9,10.1,1.9C274.7,160.2,277,160,279.9,159.6z"
		/>
	<path class="st0" d="M406.2,233.2l1.4,1.4c-4.8,4.6-9.8,6.8-14.8,6.8c-4.2,0-7.7-1.5-10.5-4.5c-9.6,10.2-19.9,18.7-30.9,25.6
		c-10.9,6.9-20.1,10.4-27.3,10.4c-3.8,0-7-1.4-9.6-4.1c-2.6-2.7-3.9-6.5-3.9-11.3c0-11.1,4.9-21.7,14.8-31.9
		c9.9-10.2,21.3-18.2,34.1-23.8c12.8-5.7,23-8.5,30.6-8.5c7.4,0,11.1,3.5,11.1,10.5c0,7.3-5.9,17.8-17.6,31.4
		c2.3,2.9,5.5,4.3,9.4,4.3C397.4,239.5,401.8,237.4,406.2,233.2z M399.2,203.1c0-2.5-0.9-4.5-2.8-6.1c-1.9-1.6-4-2.3-6.3-2.3
		c-9.9,0-24.8,9.9-44.7,29.7c-19.9,19.8-29.9,32.9-29.9,39.3c0,1.8,0.9,3.5,2.7,5c1.8,1.5,3.9,2.2,6.2,2.2c5.5,0,13.3-2.8,23.5-8.5
		s19.2-12.6,26.9-20.7c7.7-8.1,13.7-15.4,18-21.9C397.1,213.4,399.2,207.8,399.2,203.1z"/>
	<path class="st0" d="M407.6,234.6l-1.4-1.4l71.7-60l1.2,2c-5.5,4.4-9,7.8-10.5,10c-1.6,2.2-2.3,5-2.3,8.4c0,2.7,0.5,6.9,1.4,12.6
		c0.9,5.7,1.4,10.9,1.4,15.5c0,9.5-3.4,18.3-10.2,26.4l17.6-14.9l1.4,1.4c-29.3,25.8-53.1,38.7-71.3,38.7c-4.4,0-8.2-1.3-11.4-3.8
		s-4.8-5.8-4.8-9.9c0-3,1-5.6,3-7.7s4.4-3.2,7.1-3.2c1.7,0,3.2,0.6,4.4,1.8c1.2,1.2,1.9,2.5,1.9,4.1c0,2.2-0.9,4.2-2.6,6
		s-3.6,2.6-5.6,2.6c-0.8,0-1.8-0.2-3.1-0.6c0,5.9,3.6,8.8,10.9,8.8c10.3,0,21.9-7.5,34.9-22.5c13-15,20.1-30.8,21.4-47.4
		c0.5-5.4,1.4-10.2,2.7-14.5L407.6,234.6z"/>
	<path class="st0" d="M555.3,233.2l1.4,1.4c-15.6,13.8-29.8,23.8-42.7,30c-12.9,6.2-23.1,9.3-30.8,9.3c-10.7,0-16-5.5-16-16.4
		c0-14.7,10.1-28.6,30.2-41.6c20.1-13,35.8-19.5,47.2-19.5c2.1,0,3.9,0.6,5.4,1.8c1.5,1.2,2.2,2.6,2.2,4.3c0,6.4-6.3,13.1-19,20.1
		c-12.7,7-26.7,11.4-42.1,13.1c-13.3,13.3-20,22.4-20,27.3c0,2.3,1.2,4.5,3.5,6.5s5.1,3,8.2,3c6.8,0,16.4-3,28.8-8.9
		C524.1,257.7,538.6,247.5,555.3,233.2z M494,233.6c3.9,0,10.8-1.7,20.8-5.1c9.9-3.4,18.2-7.8,24.8-13.2c6.6-5.4,9.9-9.8,9.9-13.4
		c0-2.5-1.4-3.7-4.3-3.7c-3.4,0-7.1,1-11.3,3.1c-4.1,2.1-10.3,6.4-18.7,12.9C506.8,220.7,499.7,227.2,494,233.6z"/>
	<path class="st0" d="M556.6,234.6l-1.4-1.4L575,217c19.5-16,33.4-24,41.6-24c7.2,0,10.7,4,10.7,12.1c0,7.3-5.6,17.1-16.8,29.3
		l0.8,0.8c33.3-27.6,56.1-41.4,68.4-41.4c3.9,0,7,1.1,9.3,3.3c2.3,2.2,3.4,4.7,3.4,7.4c0,7.6-6.2,17.9-18.6,31.1l0.8,0.4
		c8.7-8.3,17.7-15.8,26.9-22.3c9.2-6.5,16.9-11.2,23.2-14.1c6.3-2.9,11.7-4.3,16.1-4.3c8.6,0,12.9,3.7,12.9,11.2
		c0,6.5-2.4,12.8-7.2,18.9c-4.8,6.1-15.5,15.8-32,29.1c-4.6,3.8-6.8,6.8-6.8,9c0,4.7,3,7,9,7c5.9,0,12.6-2.3,20.2-6.9
		c7.6-4.6,20.4-14.7,38.4-30.4l1.4,1.4c-21.2,18.1-35.4,28.9-42.5,32.5c-7.1,3.6-13,5.4-17.7,5.4c-3.6,0-6.7-1.3-9.3-3.8
		s-3.8-5.6-3.8-9.1c0-4.8,1.9-9.8,5.6-14.8s11.3-12.1,22.9-21c11.5-8.9,17.3-15.7,17.3-20.4c0-3.6-2.5-5.5-7.5-5.5
		c-6.4,0-14.8,2.9-25.1,8.7c-10.3,5.8-22.1,14.9-35.4,27.2l-23,21.7c-6.8,6.4-12,11.6-15.7,15.6l-19.8,0.4l26.8-26.6
		c14.3-14.2,23.9-24.3,28.7-30.1c4.8-5.8,7.2-10.2,7.2-13.2c0-1.3-0.6-2.6-1.9-3.9c-1.3-1.3-2.9-2-4.8-2c-5.8,0-14.8,4-27,12
		c-12.3,8-25.2,18-38.7,30.1l-36.8,33.3l-19.6,0.4l7-7.8l25.2-24.8c13.3-13,22.1-22.1,26.4-27.2c4.3-5.1,6.4-9.1,6.4-12
		c0-2.9-1.7-4.3-5.1-4.3c-4.8,0-11.7,3-20.5,8.9C586.8,210.1,573.8,220.2,556.6,234.6z"/>
	<path class="st0" d="M875.3,194.9h17.3l-54.8,57.2c-5.4,5.5-8.1,10-8.1,13.3c0,2.2,0.7,3.8,2.2,4.9c1.5,1.1,3,1.6,4.6,1.6
		c3.1,0,8.1-2.3,15-6.9c6.9-4.6,20.2-15.3,39.8-32l1.4,1.4c-20.9,17.7-34.8,28.7-41.6,32.9c-6.8,4.2-12,6.3-15.5,6.3
		c-3.1,0-5.6-1.1-7.3-3.4c-1.8-2.3-2.6-5-2.6-8.1c0-5.5,2.7-12.3,8-20.5l-0.8-0.6c-26.4,21.7-44.4,32.6-54.1,32.6
		c-4,0-7.2-1.7-9.5-5s-3.4-7.6-3.4-13c0-14.8,10.4-28.7,31.3-41.5c20.9-12.8,38.4-19.2,52.7-19.2c7.4,0,11.1,3.1,11.1,9.4
		c0,1.4-0.1,3.3-0.3,5.5L875.3,194.9z M858.6,204.1c0-4.7-3-7-9-7c-10.8,0-26.6,9.4-47.5,28.1c-20.9,18.8-31.3,32-31.3,39.6
		c0,1.7,0.7,3.3,2.1,4.8c1.4,1.5,3.4,2.2,6,2.2c3.8,0,10-2.4,18.6-7.2c8.6-4.8,19.3-12.6,31.9-23.4c12.6-10.8,20.6-18.6,24-23.5
		C856.9,212.9,858.6,208.4,858.6,204.1z"/>
	<path class="st0" d="M892.8,234.6l-1.4-1.4l29.7-24.4c4.7-3.8,8-6.7,10-8.8c-4.2-2.5-6.3-5.9-6.3-10.2c0-2.7,0.9-5.1,2.8-7.2
		c1.9-2.1,4-3.1,6.3-3.1c1.7,0,3.2,0.7,4.6,2.1c1.4,1.4,2.1,3.2,2.1,5.3c0,2.1-0.7,3.9-2.1,5.4c-1.4,1.5-3.1,2.2-5.2,2.2
		c-1.4,0-2.9-0.5-4.4-1.6c-0.1,0.5-0.2,0.8-0.2,1c0,1.2,0.9,2.3,2.7,3.5s4.5,1.8,7.9,1.8c5,0,10.5-1.3,16.3-3.9l10.3,11.5
		c-2.5,4.8-7.6,10.8-15.3,17.9c-7.7,7.1-15.4,14.7-23.1,22.7c-7.7,8-12,12.8-13.1,14.4c-1,1.6-1.6,3.1-1.6,4.5
		c0,3.7,2.1,5.5,6.2,5.5c4.9,0,12.6-2.9,23-8.7c10.4-5.8,23.7-15.8,39.8-29.9l1.4,1.4c-30.3,26.2-51.9,39.3-64.6,39.3
		c-3.8,0-6.7-1.2-8.9-3.6s-3.2-5.6-3.2-9.5c0-4.9,1.6-9.9,4.8-14.8c3.2-4.9,10.1-12.6,20.6-22.9c10.6-10.3,17.9-18,21.9-23l-0.8-1.4
		c-5.5,2-10.6,2.9-15.3,2.9c-1.3,0-2.7-0.2-4.1-0.6L892.8,234.6z"/>
	<path class="st0" d="M983.4,234.6l-1.4-1.4l18.4-15.4c6.2-5.3,13.7-10.5,22.4-15.5c8.7-5,15.5-7.5,20.4-7.5c3,0,5.4,1,7.2,3
		c1.8,2,2.7,4.4,2.7,7.1c0,5.5-2,10.7-5.9,15.6c-3.9,5-15,15.4-33.2,31.4c-6.8,6.1-10.2,10.7-10.2,13.9c0,3.4,1.9,5.1,5.7,5.1
		c5.5,0,12.9-3,22.4-9.1c9.5-6.1,26.3-20,50.5-41.7l18.7-16.8c1.3-1.2,3.8-4,7.4-8.4h18.9l-83.1,87.3c27.2-7,55.5-23.4,84.8-49
		l1.4,1.4c-32.4,27.9-62.4,44.9-89.9,51l-20.9,21.7c-12,12.5-26.2,24.9-42.6,37.3c-16.4,12.4-30.5,18.6-42.4,18.6
		c-7.8,0-11.7-2.7-11.7-8.2c0-7.8,8.7-17.9,25.9-30.2c17.3-12.3,41.1-23.2,71.4-32.7l79.3-83l-0.7-1c-3.6,3.1-8.6,7.6-14.8,13.3
		l-18,16.6c-4.4,4-11.9,9.9-22.3,17.5c-10.4,7.6-18.1,12.5-23.1,14.6c-5,2.1-9.3,3.2-13,3.2c-2.3,0-4.7-0.8-7.1-2.5
		c-2.4-1.7-3.6-4.4-3.6-8c0-10.3,6.6-21.1,19.9-32.3c13.3-11.2,21.5-18.6,24.6-22.1c3.1-3.5,4.7-6.3,4.7-8.2c0-2.2-1.6-3.3-4.7-3.3
		c-3.4,0-9,2.2-16.7,6.5c-7.7,4.3-16.8,10.8-27.2,19.4L983.4,234.6z M1016.9,296.7c-22,5.1-42.7,14.2-62.1,27.3
		c-19.4,13.1-29.2,23.5-29.2,31.2c0,3.9,3.1,5.9,9.4,5.9c8.6,0,17.1-2.8,25.6-8.5c8.5-5.7,21.7-18.3,39.8-37.7L1016.9,296.7z"/>
</g>
<g>
	<path class="st0" d="M471.3,299.4h32.8l0.8,14.2h-2.3c-0.5-3-1.2-5.4-2.1-7.1c-0.9-1.7-1.8-2.9-3-3.6c-1.1-0.7-2.3-1.1-3.6-1.1
		c-0.8,0-1.3,0.2-1.7,0.5c-0.4,0.3-0.5,0.8-0.5,1.4v29c0,0.6,0.2,1,0.5,1.4s0.8,0.5,1.3,0.5h4.3v2.4h-20v-2.4h4.1
		c0.6,0,1.1-0.2,1.4-0.5c0.4-0.3,0.5-0.8,0.5-1.4v-28.8c0-0.7-0.2-1.2-0.5-1.5s-0.9-0.5-1.7-0.5c-4.3,0-7.2,3.9-8.7,11.8h-2.2
		L471.3,299.4z"/>
	<path class="st0" d="M530.7,325.2h-16.6c0.1,3.3,0.7,5.8,2,7.4s2.9,2.4,5,2.4c1.5,0,2.8-0.4,4.1-1.2c1.3-0.8,2.6-2.3,4-4.4l1.9,1.1
		c-1.4,2.5-3.1,4.3-4.9,5.4s-4.1,1.6-6.8,1.6c-3.9,0-7-1.2-9.4-3.5c-2.4-2.4-3.6-5.4-3.6-9.1c0-3.7,1.2-6.8,3.6-9.3
		c2.4-2.5,5.4-3.7,8.9-3.7c2.4,0,4.5,0.5,6.3,1.5s3.1,2.5,4.1,4.4C530.1,319.6,530.7,322.1,530.7,325.2z M514.1,322.8h7.9
		c0.7,0,1.3-0.2,1.6-0.6c0.3-0.4,0.5-1,0.5-2c0-2-0.4-3.5-1.3-4.5c-0.9-1.1-2-1.6-3.4-1.6c-1.6,0-2.9,0.7-3.8,2.2
		C514.7,317.7,514.2,319.9,514.1,322.8z"/>
	<path class="st0" d="M560.7,333.9l1.1,1.8c-1,0.7-2,1.2-2.8,1.5s-1.7,0.4-2.7,0.4c-1.5,0-2.6-0.3-3.5-0.9c-0.9-0.6-1.7-1.8-2.5-3.5
		c-1.7,1.7-3.3,2.9-4.6,3.5c-1.4,0.6-2.9,0.9-4.6,0.9c-2.4,0-4.2-0.5-5.6-1.6c-1.3-1.1-2-2.5-2-4.2c0-2.6,1.2-4.6,3.7-6.1
		c2-1.2,6.3-2.4,13-3.7v-3.4c0-1.4-0.4-2.5-1.3-3.3c-0.9-0.9-2.1-1.3-3.6-1.3c-1.1,0-2.2,0.2-3,0.7c-0.6,0.3-0.9,0.6-0.9,1
		c0,0.2,0.1,0.4,0.3,0.8c0.5,0.8,0.7,1.5,0.7,2.3c0,0.9-0.3,1.7-0.9,2.3c-0.6,0.6-1.5,0.9-2.5,0.9c-1.1,0-2-0.3-2.7-1s-1-1.4-1-2.4
		c0-1.6,0.9-3.1,2.7-4.3c2.2-1.6,5-2.3,8.3-2.3c2.5,0,4.7,0.4,6.6,1.2c1.2,0.5,2.2,1.3,3,2.6c0.8,1.2,1.2,2.7,1.2,4.5v12
		c0,0.9,0.2,1.6,0.5,2c0.3,0.4,0.8,0.6,1.4,0.6C559.2,334.7,559.9,334.4,560.7,333.9z M550.1,324.2c-3.6,0.5-6.1,1.2-7.3,2.3
		c-1.3,1-1.9,2.4-1.9,4c0,1.2,0.3,2.1,0.9,2.7c0.6,0.6,1.4,1,2.5,1c1.7,0,3.1-0.6,4.2-1.8c1.1-1.2,1.7-2.8,1.7-4.9V324.2z"/>
	<path class="st0" d="M592.1,314.9c3,5,5.9,9.3,8.8,12.7c2.3-3,3.5-5.4,3.5-7c0-0.9-0.3-1.6-1-2.1c-0.7-0.5-1.9-0.8-3.7-0.9v-2.3
		H614v2.3c-1.7,0-3,0.3-3.9,0.9c-0.9,0.6-2,2.2-3.5,4.7c-1.3,2.2-2.6,4.3-3.9,6.1c1.3,1.4,2.4,2.3,3.2,2.8s1.6,0.7,2.4,0.7
		c1,0,1.9-0.4,2.6-1.2c0.7-0.8,1.1-2.1,1.2-3.9h2.2c0,3.2-0.7,5.6-2,7.2c-1.6,1.8-3.7,2.8-6.4,2.8c-1.4,0-2.7-0.2-3.9-0.7
		c-1.3-0.5-2.8-1.4-4.6-2.8c-2.2,1.4-4,2.3-5.7,2.8s-3.3,0.7-5.2,0.7c-3.5,0-6.3-1-8.4-2.9c-2.1-1.9-3.2-4.4-3.2-7.3
		c0-4.9,3.3-8.8,9.8-11.7c-1.1-2.4-1.9-4.2-2.3-5.4s-0.5-2.4-0.5-3.5c0-2.3,0.9-4.3,2.8-6c1.9-1.6,4.3-2.5,7.3-2.5
		c3,0,5.4,0.6,7,1.9c1.6,1.3,2.4,2.9,2.4,4.9c0,1.7-0.7,3.3-2,4.9C598.2,311.7,595.7,313.3,592.1,314.9z M585.9,318.1
		c-1.4,1-2.3,2-2.9,3s-0.8,2.1-0.8,3.3c0,2.2,0.8,4.4,2.4,6.4c1.6,2.1,3.6,3.1,5.9,3.1c1.6,0,3.3-0.6,5.1-1.7
		c-2.8-3.5-4.5-5.8-5.3-7C589.5,324,588.1,321.6,585.9,318.1z M591.1,312.9c1.9-0.9,3.3-1.9,4-3s1.1-2.4,1.1-4.1
		c0-1.7-0.4-2.9-1.1-3.8c-0.7-0.9-1.7-1.3-2.9-1.3c-1.1,0-2.1,0.4-2.8,1.2c-0.7,0.8-1.1,1.9-1.1,3.3
		C588.3,307.2,589.2,309.7,591.1,312.9z"/>
	<path class="st0" d="M658.3,302.2l1.8-3.7h1.9l0.6,15h-2.3c-0.7-4.3-2.1-7.5-4.1-9.6s-4.3-3.1-6.9-3.1c-2.8,0-5.2,1.4-7,4.1
		c-1.9,2.7-2.8,7-2.8,12.8c0,6.2,1,10.7,3.1,13.7c1.6,2.3,4.1,3.5,7.2,3.5c3.2,0,5.9-1.2,8.1-3.5c1.6-1.7,2.7-4.2,3.3-7.6h2.3
		c-0.5,4.3-2.2,7.7-4.9,10.1c-2.7,2.5-6.1,3.7-10,3.7c-5.1,0-9.4-1.8-12.9-5.4c-3.5-3.6-5.2-8.3-5.2-13.9c0-6.3,2-11.3,6-15
		c3.4-3.2,7.4-4.8,12-4.8c1.8,0,3.5,0.3,5,0.8S656.6,300.8,658.3,302.2z"/>
	<path class="st0" d="M679.7,311.8c2.7,0,5.1,0.6,7.3,1.7c2.2,1.1,3.9,2.6,5,4.5s1.6,4.1,1.6,6.7c0,4.2-1.4,7.3-4.2,9.6
		c-2.8,2.2-6,3.3-9.6,3.3c-2.5,0-4.9-0.6-7-1.7c-2.1-1.1-3.7-2.7-4.9-4.6s-1.7-4.1-1.7-6.6c0-3.7,1.3-6.7,3.8-9.2
		C672.6,313.1,675.8,311.8,679.7,311.8z M679.8,314.2c-1.8,0-3.2,0.8-4.2,2.3c-1,1.5-1.6,4.3-1.6,8.1c0,4,0.5,6.8,1.5,8.4
		c1,1.5,2.4,2.3,4.2,2.3c1.8,0,3.2-0.8,4.3-2.4c1.1-1.6,1.6-4.3,1.6-8.1c0-4-0.5-6.7-1.6-8.3C683.1,315,681.6,314.2,679.8,314.2z"/>
	<path class="st0" d="M700.3,329c1.2,0,2.2,0.4,3,1.3c0.8,0.8,1.3,1.9,1.3,3c0,1.2-0.4,2.2-1.3,3.1c-0.8,0.8-1.8,1.3-3,1.3
		c-1.2,0-2.2-0.4-3-1.3c-0.8-0.8-1.3-1.9-1.3-3.1c0-1.2,0.4-2.2,1.3-3C698.2,329.4,699.2,329,700.3,329z"/>
</g>
</svg>
