<?xml version="1.0" encoding="utf-8"?>
<!-- Generator: Adobe Illustrator 19.1.0, SVG Export Plug-In . SVG Version: 6.00 Build 0)  -->
<svg version="1.1" id="Layer_1" xmlns="http://www.w3.org/2000/svg" xmlns:xlink="http://www.w3.org/1999/xlink" x="0px" y="0px"
	 viewBox="0 0 53 53" style="enable-background:new 0 0 53 53;" xml:space="preserve">
<style type="text/css">
	.st0{fill:#FFFFFF;}
	.st1{fill:#603913;}
	.st2{fill:#58595B;}
	.st3{fill:#F2C082;}
</style>
<g>
	<g>
		<path class="st0" d="M45.6,0H7.4C3.3,0,0,3.3,0,7.4v38.3C0,49.7,3.3,53,7.4,53h38.3c4.1,0,7.4-3.3,7.4-7.4V7.4
			C53,3.3,49.7,0,45.6,0z M26.5,16.2c5.7,0,10.3,4.6,10.3,10.3s-4.6,10.3-10.3,10.3s-10.3-4.6-10.3-10.3S20.8,16.2,26.5,16.2z
			 M47.1,45.6c0,0.8-0.7,1.5-1.5,1.5H7.4c-0.8,0-1.5-0.7-1.5-1.5V22.1h5c-0.4,1.4-0.6,2.9-0.6,4.4c0,8.9,7.3,16.2,16.2,16.2
			s16.2-7.3,16.2-16.2c0-1.5-0.2-3-0.6-4.4h5V45.6z M47.1,14.7c0,0.8-0.7,1.5-1.5,1.5h-7.4c-0.8,0-1.5-0.7-1.5-1.5V7.4
			c0-0.8,0.7-1.5,1.5-1.5h7.4c0.8,0,1.5,0.7,1.5,1.5V14.7z"/>
	</g>
</g>
</svg>
