<?xml version="1.0" encoding="utf-8"?>
<!-- Generator: Adobe Illustrator 19.1.0, SVG Export Plug-In . SVG Version: 6.00 Build 0)  -->
<svg version="1.1" id="Layer_1" xmlns="http://www.w3.org/2000/svg" xmlns:xlink="http://www.w3.org/1999/xlink" x="0px" y="0px"
	 viewBox="0 0 53 53" style="enable-background:new 0 0 53 53;" xml:space="preserve">
<style type="text/css">
	.st0{fill:#FFFFFF;}
	.st1{fill:#603913;}
	.st2{fill:#58595B;}
	.st3{fill:#F2C082;}
</style>
<path class="st0" d="M50.1,0H2.9C1.3,0,0,1.3,0,2.9v47.1C0,51.7,1.3,53,2.9,53h47.1c1.6,0,2.9-1.3,2.9-2.9V2.9C53,1.3,51.7,0,50.1,0
	z M43.2,18c0,0.4,0,0.7,0,1.1c0,11.4-8.6,24.5-24.5,24.5c-4.9,0-9.4-1.4-13.2-3.9c0.7,0.1,1.4,0.1,2.1,0.1c4,0,7.7-1.4,10.7-3.7
	c-3.8-0.1-6.9-2.6-8-6c0.5,0.1,1.1,0.2,1.6,0.2c0.8,0,1.5-0.1,2.3-0.3c-3.9-0.8-6.9-4.3-6.9-8.4c0,0,0-0.1,0-0.1
	c1.2,0.6,2.5,1,3.9,1.1c-2.3-1.5-3.8-4.2-3.8-7.2c0-1.6,0.4-3.1,1.2-4.3c4.2,5.2,10.6,8.6,17.7,9c-0.1-0.6-0.2-1.3-0.2-2
	c0-4.7,3.8-8.6,8.6-8.6c2.5,0,4.7,1,6.3,2.7c2-0.4,3.8-1.1,5.5-2.1c-0.6,2-2,3.7-3.8,4.8c1.7-0.2,3.4-0.7,4.9-1.4
	C46.3,15.2,44.8,16.7,43.2,18z"/>
</svg>
