<?xml version="1.0" encoding="utf-8"?>
<!-- Generator: Adobe Illustrator 19.1.0, SVG Export Plug-In . SVG Version: 6.00 Build 0)  -->
<svg version="1.1" id="Layer_1" xmlns="http://www.w3.org/2000/svg" xmlns:xlink="http://www.w3.org/1999/xlink" x="0px" y="0px"
	 viewBox="0 0 53 53" style="enable-background:new 0 0 53 53;" xml:space="preserve">
<style type="text/css">
	.st0{fill:#FFFFFF;}
	.st1{fill:#603913;}
	.st2{fill:#58595B;}
	.st3{fill:#F2C082;}
</style>
<path class="st0" d="M50.1,0H2.9C1.3,0,0,1.1,0,2.7v47.2C0,51.5,1.3,53,2.9,53H28V33h-7v-8h7v-6.6c0-6.9,4.4-10.6,10.6-10.6
	C41.5,7.8,44,8,45,8.1v7.2l-4.6,0c-3.3,0-4.4,1.6-4.4,3.9V25h8.6l-1,8H36v20h14.1c1.6,0,2.9-1.5,2.9-3.1V2.7C53,1.1,51.8,0,50.1,0z"
	/>
</svg>
